<?xml version="1.0" encoding="utf-8"?>
<svg width="8px" height="8px" viewBox="0 0 8 8" version="1.1" xmlns:xlink="http://www.w3.org/1999/xlink" xmlns="http://www.w3.org/2000/svg">
  <g id="Group-16">
    <path d="M1.01529 0L6.89479 0C7.45316 0 7.91 0.413392 7.91 1.01521L7.91 6.89487C7.91 7.49669 7.45316 7.91008 6.89479 7.91008L1.01529 7.91008C0.456762 7.91008 0 7.49669 0 6.89487L0 1.01521C0 0.413392 0.456762 0 1.01529 0L1.01529 0L1.01529 0ZM5.7621 0.878784C5.56621 0.878784 5.40613 1.03894 5.40613 1.23492L5.40613 2.08729C5.40613 2.28318 5.56621 2.44342 5.7621 2.44342L6.65613 2.44342C6.85203 2.44342 7.01227 2.28318 7.01227 2.08729L7.01227 1.23492C7.01227 1.03894 6.85203 0.878784 6.65613 0.878784L5.7621 0.878784L5.7621 0.878784L5.7621 0.878784ZM7.01607 3.34509L6.31988 3.34509C6.38575 3.56015 6.4214 3.78797 6.4214 4.02366C6.4214 5.33936 5.32043 6.4059 3.96258 6.4059C2.6048 6.4059 1.50399 5.33936 1.50399 4.02366C1.50399 3.7878 1.53956 3.56007 1.60551 3.34509L0.879028 3.34509L0.879028 6.68642C0.879028 6.85933 1.02051 7.00089 1.1935 7.00089L6.70176 7.00089C6.87476 7.00089 7.01623 6.85941 7.01623 6.68642L7.01623 3.34509L7.01607 3.34509L7.01607 3.34509ZM3.9625 2.39856C3.0852 2.39856 2.3739 3.08768 2.3739 3.93786C2.3739 4.78803 3.0852 5.47715 3.9625 5.47715C4.83988 5.47715 5.55125 4.78803 5.55125 3.93786C5.55125 3.08768 4.83996 2.39856 3.9625 2.39856L3.9625 2.39856Z" id="Shape" fill="#D9D9D9" fill-rule="evenodd" stroke="none" />
  </g>
</svg>