<?xml version="1.0" encoding="utf-8"?>
<svg width="10px" height="9px" viewBox="0 0 10 9" version="1.1" xmlns:xlink="http://www.w3.org/1999/xlink" xmlns="http://www.w3.org/2000/svg">
  <g id="Group-17">
    <g id="Group-3">
      <path d="M4.48876 8.44587C4.47418 8.44699 4.45898 8.44761 4.44379 8.44761C3.91053 8.44761 3.56824 8.20571 3.23728 7.97173C3.00874 7.81027 2.79309 7.65786 2.53898 7.61554C2.41498 7.59502 2.29157 7.58459 2.1723 7.58459C1.95743 7.58459 1.78792 7.61775 1.66418 7.64194C1.58897 7.65667 1.5241 7.66931 1.47479 7.66931C1.42328 7.66931 1.36746 7.65817 1.34321 7.5753C1.32213 7.5035 1.30688 7.43398 1.29221 7.3667C1.25441 7.19357 1.22756 7.08711 1.15501 7.07597C0.309219 6.94535 0.0671494 6.76724 0.013175 6.64086C0.00553162 6.62278 0.00118468 6.60467 0.000152286 6.58675C-0.00258266 6.5382 0.0318124 6.49533 0.0797917 6.48749C1.37996 6.27342 1.96299 4.94479 1.98719 4.88836C2.06886 4.72251 2.08443 4.58255 2.03575 4.46782C1.94653 4.25757 1.65554 4.16518 1.4629 4.10408C1.41577 4.08917 1.37108 4.07507 1.33584 4.06116C0.95146 3.90922 0.919474 3.75326 0.93458 3.67378C0.960335 3.53834 1.14137 3.44396 1.28777 3.44396C1.32792 3.44396 1.36326 3.45107 1.39298 3.46494C1.5659 3.54593 1.72172 3.58698 1.85618 3.58698C2.04198 3.58698 2.12307 3.50891 2.13299 3.49868C2.12827 3.41071 2.12242 3.3188 2.11644 3.224C2.07771 2.6094 2.02974 1.84573 2.22421 1.40982C2.80706 0.103158 4.04305 0.00165472 4.40798 0.00165472C4.41732 0.00165472 4.56796 6.10955e-05 4.56796 6.10955e-05C4.95535 -2.94514e-05 6.19404 0.101673 6.77722 1.40904C6.97175 1.84519 6.92362 2.60951 6.88482 3.22364L6.88321 3.25033C6.87783 3.33586 6.87265 3.41897 6.86831 3.49854C6.8776 3.50803 6.95218 3.57981 7.12063 3.58628C7.24881 3.58137 7.39592 3.54057 7.55735 3.46496C7.60468 3.44289 7.65722 3.43822 7.69299 3.43822C7.74762 3.43822 7.80302 3.44879 7.84901 3.46799C7.98239 3.5154 8.06793 3.60692 8.06976 3.70254C8.07147 3.79258 8.00271 3.92797 7.66544 4.06118C7.63049 4.0749 7.5858 4.0891 7.5385 4.1041C7.34567 4.16527 7.05477 4.25759 6.96561 4.46779C6.91687 4.58246 6.93248 4.72233 7.01203 4.88365C7.03834 4.94475 7.62087 6.273 8.9216 6.48731C8.96963 6.49522 9.00392 6.53805 9.00127 6.58666C9.00019 6.60487 8.99575 6.62322 8.98798 6.64106C8.93433 6.76654 8.69244 6.94441 7.84638 7.07512C7.77727 7.08573 7.75048 7.17579 7.70924 7.36462C7.69424 7.43334 7.67905 7.50085 7.65814 7.57184C7.64012 7.63345 7.60172 7.66228 7.53714 7.66228C7.48179 7.66228 7.41805 7.65426 7.33729 7.63841C7.19406 7.6104 7.03345 7.58459 6.82913 7.58459C6.70981 7.58459 6.58635 7.59502 6.46227 7.61554C6.20844 7.65786 5.99293 7.80998 5.76482 7.97121C5.4332 8.20571 5.09097 8.44761 4.55755 8.44761C4.53435 8.44761 4.51156 8.44694 4.48876 8.44587Z" id="Shape" fill="#F60051" fill-rule="evenodd" stroke="none" />
    </g>
  </g>
</svg>