<?xml version="1.0" encoding="utf-8"?>
<svg width="9px" height="8px" viewBox="0 0 9 8" version="1.1" xmlns:xlink="http://www.w3.org/1999/xlink" xmlns="http://www.w3.org/2000/svg">
  <g id="Group-18">
    <g id="Group-4">
      <path d="M1.01545 0L6.89588 0C7.45433 0 7.91125 0.413392 7.91125 1.01521L7.91125 6.89487C7.91125 7.49669 7.45433 7.91008 6.89588 7.91008L1.01545 7.91008C0.456834 7.91008 0 7.49669 0 6.89487L0 1.01521C0 0.413392 0.456834 0 1.01545 0L1.01545 0L1.01545 0ZM5.76306 0.878844C5.56713 0.878844 5.40703 1.039 5.40703 1.23498L5.40703 2.08735C5.40703 2.28324 5.56713 2.44348 5.76306 2.44348L6.65723 2.44348C6.85315 2.44348 7.01342 2.28324 7.01342 2.08735L7.01342 1.23498C7.01342 1.039 6.85315 0.878844 6.65723 0.878844L5.76306 0.878844L5.76306 0.878844L5.76306 0.878844ZM7.01716 3.34515L6.32086 3.34515C6.38673 3.56021 6.42239 3.78802 6.42239 4.02371C6.42239 5.33942 5.32125 6.40595 3.96318 6.40595C2.60519 6.40595 1.5042 5.33942 1.5042 4.02371C1.5042 3.78786 1.53978 3.56013 1.60574 3.34515L0.879145 3.34515L0.879145 6.68647C0.879145 6.85938 1.02065 7.00094 1.19366 7.00094L6.7028 7.00094C6.87582 7.00094 7.01732 6.85946 7.01732 6.68647L7.01732 3.34515L7.01716 3.34515L7.01716 3.34515ZM3.9631 2.39857C3.08566 2.39857 2.37425 3.08769 2.37425 3.93786C2.37425 4.78804 3.08566 5.47716 3.9631 5.47716C4.84062 5.47716 5.5521 4.78804 5.5521 3.93786C5.5521 3.08769 4.8407 2.39857 3.9631 2.39857L3.9631 2.39857Z" id="Shape" fill="#F60051" fill-rule="evenodd" stroke="none" />
    </g>
  </g>
</svg>